<?xml version="1.0" encoding="UTF-8"?>
<svg id="Layer_2" data-name="Layer 2" xmlns="http://www.w3.org/2000/svg" viewBox="0 0 264.3 47.7">
  <defs>
    <style>
      .cls-1 {
        fill: #ec8123;
      }

      .cls-2 {
        fill: #3e3e3e;
      }

      .cls-3 {
        fill: #231f20;
        stroke: #231f20;
        stroke-miterlimit: 10;
      }
    </style>
  </defs>
  <g id="Layer_1-2" data-name="Layer 1">
    <g id="Layer_1-2" data-name="Layer 1-2">
      <g>
        <g>
          <path class="cls-3" d="M46.7,21.7V.6h4V21.7h-4Z"/>
          <path class="cls-3" d="M87.2,21.7L64.7,5.3V21.7h-3.5V.6h3.5l21,15.7V.6h3.5V21.7h-2Z"/>
          <path class="cls-3" d="M109.4,21.7V3.7h-11.1V.6h25.8V3.7h-10.8V21.7c.1,0-3.9,0-3.9,0Z"/>
          <path class="cls-3" d="M133.4,21.7V.6h21.7V3.7h-17.7v5.3h16.8v3.1h-16.8v6.5h17.7v3.1s-21.7,0-21.7,0Z"/>
          <path class="cls-3" d="M172.4,21.7c-5,0-7.5-1.5-7.5-4.6V5.1c0-3,2.5-4.6,7.5-4.6h16.5V3.6h-16.5c-2.4,0-3.5,.5-3.5,1.4v12c0,1,1.2,1.4,3.5,1.4h9.3c2.4,0,3.5-.5,3.5-1.4v-7h4v7c0,3-2.5,4.5-7.5,4.5h-9.3v.2Z"/>
          <path class="cls-3" d="M219.5,21.7l-4.9-9.4h-11.1v9.4h-4V.6h17.9c4.8,0,6.6,2.1,6.6,5.1v1.5c0,2.7-1.5,4.7-5.2,5l5,9.5h-4.3Zm.5-16c0-1.3-.8-1.9-2.6-1.9h-13.9v5.5h13.9c1.8,0,2.6-.7,2.6-2v-1.6Z"/>
          <path class="cls-3" d="M258.2,21.7l-10.9-17-11.1,17h-4.4L245.8,.6h2.9l13.9,21.1h-4.4Z"/>
          <path class="cls-2" d="M46.8,47.7v-3.1h18.4c1.8,0,2.6-.7,2.6-2v-2.7c0-1.3-.8-2-2.6-2h-12.4c-4.8,0-6.6-2.1-6.6-5.1v-1.2c0-3,1.8-5.1,6.6-5.1h17.9v3.1h-17.9c-1.8,0-2.6,.7-2.6,2v1.3c0,1.3,.8,2,2.6,2h12.4c4.8,0,6.6,2.1,6.6,5.1v2.6c0,3-1.8,5.1-6.6,5.1,0,0-18.4,0-18.4,0Z"/>
          <path class="cls-2" d="M84.2,47.7V29.7h-11.1v-3.1h25.9v3.1h-10.8v18h-4Z"/>
          <path class="cls-2" d="M121.7,47.7l-4.9-9.4h-11.1v9.4h-4V26.6h17.9c4.8,0,6.6,2.1,6.6,5.1v1.5c0,2.7-1.5,4.7-5.2,5l5,9.5h-4.3Zm.5-16c0-1.3-.8-2-2.6-2h-13.9v5.5h13.9c1.8,0,2.6-.7,2.6-2v-1.5Z"/>
          <path class="cls-2" d="M153.9,47.7l-10.9-17-11.1,17h-4.4l14-21.1h2.9l13.9,21.1h-4.4Z"/>
          <path class="cls-2" d="M164.9,47.7V29.7h-11.1v-3.1h25.8v3.1h-10.8v18h-3.9Z"/>
          <path class="cls-2" d="M182.4,47.7V26.6h21.7v3.1h-17.7v5.3h16.8v3.1h-16.8v6.5h17.7v3.1s-21.7,0-21.7,0Z"/>
          <path class="cls-2" d="M214.8,47.7c-5,0-7.5-1.5-7.5-4.6v-12c0-3,2.5-4.6,7.5-4.6h16.5v3.1h-16.5c-2.4,0-3.5,.5-3.5,1.4v12c0,1,1.2,1.4,3.5,1.4h9.3c2.4,0,3.5-.5,3.5-1.4v-7h4v7c0,3-2.5,4.5-7.5,4.5,.1,.2-9.3,.2-9.3,.2Z"/>
          <path class="cls-2" d="M247,47.7v-8.6l-13.6-12.5h5.1l10.4,9.7,10.4-9.7h5l-13.3,12.5v8.6h-4Z"/>
        </g>
        <g>
          <path class="cls-1" d="M27.4,39.8c-6.5,0-11.9-5.3-11.9-11.8s5.3-11.9,11.9-11.9v3.8c-4.4,0-8,3.6-8,8s3.6,8,8,8,8-3.6,8-8h3.8c0,6.6-5.3,11.9-11.8,11.9Z"/>
          <path class="cls-1" d="M27.4,47.7c-10.9,0-19.8-8.9-19.8-19.8S16.5,8.2,27.4,8.2v3.8c-8.8,0-15.9,7.1-15.9,15.9s7.2,15.9,15.9,15.9v3.9Z"/>
          <path class="cls-1" d="M3.8,28H0C0,12.9,12.3,.6,27.4,.6v3.8C14.4,4.4,3.8,15,3.8,28Z"/>
        </g>
      </g>
    </g>
  </g>
</svg>