<?xml version="1.0" encoding="utf-8"?>
<!-- Generator: Adobe Illustrator 26.4.1, SVG Export Plug-In . SVG Version: 6.00 Build 0)  -->
<svg version="1.1" id="Layer_2_00000045610107465324404460000014873959522718691771_"
	 xmlns="http://www.w3.org/2000/svg" xmlns:xlink="http://www.w3.org/1999/xlink" x="0px" y="0px" viewBox="0 0 264.5 65.2"
	 style="enable-background:new 0 0 264.5 65.2;" xml:space="preserve">
<style type="text/css">
	.st0{fill:#231F20;stroke:#231F20;stroke-miterlimit:10;}
	.st1{fill:#3D3D3D;}
	.st2{fill:#EC8123;}
</style>
<g id="Layer_1-2">
	<g>
		<g>
			<g>
				<path class="st0" d="M46.7,21.6V0.5h4v21.1H46.7z"/>
				<path class="st0" d="M87.2,21.6L64.7,5.2v16.4h-3.5V0.5h3.5l21,15.7V0.5h3.5v21.1C89.2,21.6,87.3,21.6,87.2,21.6z"/>
				<path class="st0" d="M109.4,21.6v-18H98.3V0.5h25.8v3.1h-10.8v18C113.4,21.6,109.4,21.6,109.4,21.6z"/>
				<path class="st0" d="M133.4,21.6V0.5h21.7v3.1h-17.7v5.3h16.8V12h-16.8v6.5h17.7v3.1C155.1,21.6,133.4,21.6,133.4,21.6z"/>
				<path class="st0" d="M172.4,21.6c-5,0-7.5-1.5-7.5-4.6v-12c0-3,2.5-4.6,7.5-4.6h16.5v3.1h-16.5c-2.4,0-3.5,0.5-3.5,1.4v12
					c0,1,1.2,1.4,3.5,1.4h9.3c2.4,0,3.5-0.5,3.5-1.4v-7h4v7c0,3-2.5,4.5-7.5,4.5H172.4z"/>
				<path class="st0" d="M219.5,21.6l-4.9-9.4h-11.1v9.4h-4V0.5h17.9c4.8,0,6.6,2.1,6.6,5.1v1.5c0,2.7-1.5,4.7-5.2,5l5,9.5
					C223.8,21.6,219.5,21.6,219.5,21.6z M220,5.6c0-1.3-0.8-1.9-2.6-1.9h-13.9v5.5h13.9c1.8,0,2.6-0.7,2.6-2
					C220,7.1,220,5.6,220,5.6z"/>
				<path class="st0" d="M258.2,21.6l-10.9-17l-11.1,17h-4.4l14-21.1h2.9l13.9,21.1H258.2z"/>
				<path class="st1" d="M46.8,47.6v-3.1h18.4c1.8,0,2.6-0.7,2.6-2v-2.7c0-1.3-0.8-2-2.6-2H52.8c-4.8,0-6.6-2.1-6.6-5.1v-1.2
					c0-3,1.8-5.1,6.6-5.1h17.9v3.1H52.8c-1.8,0-2.6,0.7-2.6,2v1.3c0,1.3,0.8,2,2.6,2h12.4c4.8,0,6.6,2.1,6.6,5.1v2.6
					c0,3-1.8,5.1-6.6,5.1C65.2,47.6,46.8,47.6,46.8,47.6z"/>
				<path class="st1" d="M84.2,47.6v-18H73.1v-3.1H99v3.1H88.2v18C88.2,47.6,84.2,47.6,84.2,47.6z"/>
				<path class="st1" d="M121.7,47.6l-4.9-9.4h-11.1v9.4h-4V26.5h17.9c4.8,0,6.6,2.1,6.6,5.1v1.5c0,2.7-1.5,4.7-5.2,5l5,9.5
					C126,47.6,121.7,47.6,121.7,47.6z M122.2,31.6c0-1.3-0.8-2-2.6-2h-13.9v5.5h13.9c1.8,0,2.6-0.7,2.6-2
					C122.2,33.1,122.2,31.6,122.2,31.6z"/>
				<path class="st1" d="M153.9,47.6l-10.9-17l-11.1,17h-4.4l14-21.1h2.9l13.9,21.1H153.9z"/>
				<path class="st1" d="M164.9,47.6v-18h-11.1v-3.1h25.8v3.1h-10.8v18H164.9z"/>
				<path class="st1" d="M182.4,47.6V26.5h21.7v3.1h-17.7v5.3h16.8V38h-16.8v6.5h17.7v3.1C204.1,47.6,182.4,47.6,182.4,47.6z"/>
				<path class="st1" d="M214.8,47.6c-5,0-7.5-1.5-7.5-4.6v-12c0-3,2.5-4.6,7.5-4.6h16.5v3.1h-16.5c-2.4,0-3.5,0.5-3.5,1.4v12
					c0,1,1.2,1.4,3.5,1.4h9.3c2.4,0,3.5-0.5,3.5-1.4v-7h4v7c0,3-2.5,4.5-7.5,4.5C224.2,47.6,214.8,47.6,214.8,47.6z"/>
				<path class="st1" d="M247,47.6V39l-13.6-12.5h5.1l10.4,9.7l10.4-9.7h5L251,39v8.6L247,47.6L247,47.6z"/>
			</g>
			<g>
				<path class="st2" d="M27.4,39.7c-6.5,0-11.9-5.3-11.9-11.8S20.8,16,27.4,16v3.8c-4.4,0-8,3.6-8,8s3.6,8,8,8s8-3.6,8-8h3.8
					C39.2,34.4,33.9,39.7,27.4,39.7z"/>
				<path class="st2" d="M27.4,47.6c-10.9,0-19.8-8.9-19.8-19.8S16.5,8.1,27.4,8.1v3.8c-8.8,0-15.9,7.1-15.9,15.9
					s7.2,15.9,15.9,15.9V47.6z"/>
				<path class="st2" d="M3.8,27.9H0C0,12.8,12.3,0.5,27.4,0.5v3.8C14.4,4.3,3.8,14.9,3.8,27.9z"/>
			</g>
		</g>
	</g>
</g>
</svg>
