<?xml version="1.0" encoding="UTF-8"?>
<svg id="Layer_2" data-name="Layer 2" xmlns="http://www.w3.org/2000/svg" viewBox="0 0 264.46 64.91">
  <defs>
    <style>
      .cls-1, .cls-2 {
        fill: #fff;
      }

      .cls-2 {
        stroke: #fff;
        stroke-miterlimit: 10;
        stroke-width: .5px;
      }
    </style>
  </defs>
  <g id="Layer_1-2" data-name="Layer 1">
    <g>
      <g>
        <g>
          <path class="cls-2" d="M46.69,21.37V.25h3.99V21.37h-3.99Z"/>
          <path class="cls-2" d="M87.25,21.37L64.72,4.93V21.37h-3.48V.25h3.45l21.03,15.69V.25h3.48V21.37h-1.95Z"/>
          <path class="cls-2" d="M109.42,21.37V3.37h-11.07V.25h25.83V3.37h-10.77V21.37h-3.99Z"/>
          <path class="cls-2" d="M133.36,21.37V.25h21.72V3.37h-17.73v5.28h16.83v3.12h-16.83v6.48h17.73v3.12h-21.72Z"/>
          <path class="cls-2" d="M172.36,21.37c-5.01,0-7.53-1.53-7.53-4.56V4.81c0-3.03,2.52-4.56,7.53-4.56h16.53V3.37h-16.53c-2.37,0-3.54,.48-3.54,1.44v12c0,.96,1.17,1.44,3.54,1.44h9.33c2.37,0,3.54-.45,3.54-1.38v-7.02h3.99v7.02c0,3-2.52,4.5-7.53,4.5h-9.33Z"/>
          <path class="cls-2" d="M219.49,21.37l-4.95-9.42h-11.13v9.42h-3.99V.25h17.94c4.8,0,6.63,2.07,6.63,5.1v1.5c0,2.73-1.47,4.68-5.22,5.04l4.98,9.48h-4.26Zm.51-16.05c0-1.26-.84-1.95-2.64-1.95h-13.95v5.46h13.95c1.8,0,2.64-.69,2.64-1.95v-1.56Z"/>
          <path class="cls-2" d="M258.16,21.37l-10.89-17.01-11.07,17.01h-4.44L245.8,.25h2.91l13.95,21.12h-4.5Z"/>
          <path class="cls-1" d="M46.81,47.37v-3.12h18.36c1.8,0,2.64-.69,2.64-1.95v-2.67c0-1.26-.84-1.95-2.64-1.95h-12.42c-4.8,0-6.63-2.07-6.63-5.1v-1.23c0-3.03,1.83-5.1,6.63-5.1h17.88v3.12h-17.88c-1.8,0-2.64,.69-2.64,1.95v1.29c0,1.26,.84,1.95,2.64,1.95h12.42c4.8,0,6.63,2.07,6.63,5.1v2.61c0,3.03-1.83,5.1-6.63,5.1h-18.36Z"/>
          <path class="cls-1" d="M84.19,47.37V29.37h-11.07v-3.12h25.83v3.12h-10.77v18h-3.99Z"/>
          <path class="cls-1" d="M121.69,47.37l-4.95-9.42h-11.13v9.42h-3.99V26.25h17.94c4.8,0,6.63,2.07,6.63,5.1v1.5c0,2.73-1.47,4.68-5.22,5.04l4.98,9.48h-4.26Zm.51-16.05c0-1.26-.84-1.95-2.64-1.95h-13.95v5.46h13.95c1.8,0,2.64-.69,2.64-1.95v-1.56Z"/>
          <path class="cls-1" d="M153.85,47.37l-10.89-17.01-11.07,17.01h-4.44l14.04-21.12h2.91l13.95,21.12h-4.5Z"/>
          <path class="cls-1" d="M164.92,47.37V29.37h-11.07v-3.12h25.83v3.12h-10.77v18h-3.99Z"/>
          <path class="cls-1" d="M182.35,47.37V26.25h21.72v3.12h-17.73v5.28h16.83v3.12h-16.83v6.48h17.73v3.12h-21.72Z"/>
          <path class="cls-1" d="M214.84,47.37c-5.01,0-7.53-1.53-7.53-4.56v-12c0-3.03,2.52-4.56,7.53-4.56h16.53v3.12h-16.53c-2.37,0-3.54,.48-3.54,1.44v12c0,.96,1.17,1.44,3.54,1.44h9.33c2.37,0,3.54-.45,3.54-1.38v-7.02h3.99v7.02c0,3-2.52,4.5-7.53,4.5h-9.33Z"/>
          <path class="cls-1" d="M247,47.37v-8.58l-13.56-12.54h5.1l10.44,9.66,10.44-9.66h5.04l-13.47,12.54v8.58h-3.99Z"/>
        </g>
        <g>
          <path class="cls-1" d="M27.37,39.46c-6.53,0-11.85-5.31-11.85-11.84s5.32-11.85,11.85-11.85v3.81c-4.43,0-8.04,3.61-8.04,8.04s3.61,8.03,8.04,8.03,8.03-3.6,8.03-8.03h3.81c0,6.53-5.31,11.84-11.84,11.84Z"/>
          <path class="cls-1" d="M27.37,47.37c-10.89,0-19.76-8.86-19.76-19.75S16.48,7.87,27.37,7.87v3.81c-8.79,0-15.94,7.15-15.94,15.94s7.15,15.94,15.94,15.94v3.81Z"/>
          <path class="cls-1" d="M3.81,27.62H0C0,12.53,12.28,.25,27.37,.25v3.81C14.38,4.06,3.81,14.63,3.81,27.62Z"/>
        </g>
      </g>
      <g>
        <path class="cls-1" d="M181,63.13h-.8v-8.6h2.45c.54,0,1,.06,1.39,.19,.39,.12,.72,.3,.98,.52,.26,.22,.45,.49,.58,.81,.12,.32,.19,.67,.19,1.05s-.07,.75-.2,1.07c-.14,.32-.34,.6-.6,.84-.26,.24-.59,.42-.98,.55-.39,.13-.84,.2-1.34,.2h-1.64v3.37Zm1.64-3.92c.75,0,1.33-.2,1.73-.59,.4-.39,.6-.9,.6-1.52s-.19-1.13-.58-1.49c-.39-.36-.97-.54-1.75-.54h-1.64v4.14h1.64Z"/>
        <path class="cls-1" d="M186.97,63.13v-5.95h.35c.12,0,.2,.06,.23,.19,.02,.07,.03,.16,.05,.28s.03,.22,.04,.33c.01,.11,.02,.2,.03,.28,0,.08,.01,.12,.01,.13,.06-.2,.14-.38,.26-.53,.12-.15,.26-.28,.41-.38,.16-.1,.32-.18,.5-.23,.18-.05,.36-.08,.53-.08,.22,0,.39,.02,.51,.05,.12,.03,.22,.06,.28,.07,0,.04-.02,.08-.04,.12-.02,.06-.04,.12-.06,.18-.03,.17-.1,.25-.22,.25-.06,0-.15,0-.25-.02-.1-.02-.26-.02-.47,.01-.17,.02-.34,.08-.5,.17-.17,.09-.32,.21-.45,.36s-.24,.32-.32,.51-.13,.4-.13,.62v3.62h-.78Z"/>
        <path class="cls-1" d="M191.73,55.62c-.17,0-.31-.06-.42-.19-.11-.12-.17-.27-.17-.44s.06-.31,.17-.44c.12-.12,.25-.19,.41-.19,.18,0,.33,.06,.46,.19,.13,.12,.2,.27,.2,.44,0,.18-.07,.33-.2,.45-.13,.12-.29,.17-.46,.17Zm.41,7.51h-.78v-5.95h.78v5.95Z"/>
        <path class="cls-1" d="M193.84,57.18c.1,0,.17,.04,.19,.12,.06,.14,.14,.34,.24,.6,.1,.26,.22,.54,.35,.85,.13,.31,.26,.63,.4,.97,.14,.34,.27,.66,.4,.97,.13,.31,.24,.6,.35,.85,.1,.26,.18,.46,.24,.6l2-4.82c.03-.09,.09-.13,.18-.13h.62l-2.44,5.95h-.77l-2.41-5.95h.65Z"/>
        <path class="cls-1" d="M199.02,61.72c0-.22,.07-.44,.21-.65,.14-.21,.36-.39,.67-.56,.3-.16,.7-.3,1.2-.4s1.1-.17,1.8-.19v-.67c0-.25-.04-.47-.11-.67-.08-.2-.18-.37-.32-.51-.14-.14-.3-.25-.49-.32-.19-.08-.39-.11-.61-.1-.28,0-.53,.06-.74,.14-.22,.09-.43,.21-.65,.37-.1,.08-.19,.12-.26,.12s-.14-.04-.2-.13l-.14-.22c.27-.28,.58-.49,.91-.64,.34-.15,.74-.22,1.2-.22,.33,0,.62,.05,.89,.16,.26,.11,.49,.26,.68,.45,.19,.19,.33,.42,.44,.7,.1,.27,.16,.57,.16,.9v3.85h-.32c-.1,0-.16-.05-.19-.14-.03-.09-.06-.23-.1-.4-.02-.04-.03-.11-.05-.22-.02-.11-.04-.19-.05-.25-.28,.37-.61,.66-1,.86-.38,.21-.83,.29-1.33,.25-.22-.02-.42-.06-.61-.12-.19-.06-.35-.16-.5-.28-.14-.12-.26-.28-.34-.46s-.13-.4-.13-.65Zm.74-.05c0,.34,.08,.58,.25,.74,.17,.16,.39,.26,.66,.3,.23,.03,.46,.02,.67-.04,.22-.06,.42-.15,.61-.26,.19-.11,.37-.24,.52-.4,.16-.15,.29-.3,.41-.44v-1.21c-1.05,.04-1.83,.16-2.35,.37-.52,.21-.78,.52-.78,.94Z"/>
        <path class="cls-1" d="M206.8,63.24c-.86,0-1.32-.48-1.37-1.45v-4.04h-.91s-.07-.05-.07-.1v-.35l1.01-.12c.02-.09,.03-.22,.05-.38s.04-.34,.07-.53c.03-.18,.05-.36,.08-.53,.02-.17,.04-.29,.05-.37,.02-.14,.08-.22,.2-.22h.3v2.05h1.81v.54h-1.81v3.97c0,.31,.07,.55,.22,.71,.15,.16,.35,.24,.59,.24,.14,0,.26,0,.36-.04s.21-.08,.35-.13c.04-.02,.09-.02,.14-.02s.1,.04,.12,.1l.13,.25c-.2,.14-.41,.24-.62,.31s-.45,.1-.71,.1Z"/>
        <path class="cls-1" d="M211.49,63.23c-.48,0-.9-.09-1.25-.26-.36-.17-.65-.4-.88-.7-.23-.29-.4-.63-.52-1.02-.11-.39-.17-.8-.17-1.23s.06-.8,.19-1.16,.3-.67,.54-.94c.24-.26,.53-.47,.87-.62,.34-.15,.73-.23,1.16-.23,.35,0,.68,.07,.98,.2,.3,.13,.56,.32,.77,.56,.22,.24,.39,.53,.51,.86s.19,.71,.19,1.13c0,.11-.02,.19-.06,.23s-.11,.06-.2,.06h-4.19c.03,.89,.24,1.54,.64,1.95,.39,.41,.9,.62,1.52,.62,.38,0,.7-.05,.94-.16,.24-.11,.45-.21,.61-.29,.05-.04,.1-.07,.14-.1,.05-.03,.09-.04,.13-.04,.05,0,.1,.03,.14,.08l.18,.24c-.29,.28-.63,.49-1.04,.62-.4,.14-.81,.2-1.21,.2Zm1.72-3.64c0-.61-.17-1.09-.48-1.45-.31-.36-.74-.53-1.3-.53-1.14,0-1.8,.66-1.98,1.98h3.76Z"/>
        <path class="cls-1" d="M219.49,64.91c-.56-.87-.97-1.76-1.22-2.66-.26-.9-.38-1.86-.38-2.89,0-.96,.12-1.89,.37-2.78s.66-1.8,1.24-2.73l.31,.2s.07,.08,.08,.13,0,.11-.03,.16c-.89,1.54-1.33,3.22-1.33,5.02s.44,3.48,1.33,5.04c.04,.06,.05,.13,.04,.19-.02,.06-.05,.11-.1,.14l-.3,.18Z"/>
        <path class="cls-1" d="M226.11,63.13h-4.68v-8.6h.8v7.99h3.88v.61Z"/>
        <path class="cls-1" d="M227.69,55.62c-.17,0-.31-.06-.42-.19-.11-.12-.17-.27-.17-.44s.06-.31,.17-.44c.12-.12,.25-.19,.41-.19,.18,0,.33,.06,.46,.19,.13,.12,.2,.27,.2,.44,0,.18-.07,.33-.2,.45-.13,.12-.29,.17-.46,.17Zm.41,7.51h-.78v-5.95h.78v5.95Z"/>
        <path class="cls-1" d="M229.91,63.12v-5.94h.36c.11,0,.18,.06,.22,.19,.02,.07,.03,.15,.04,.23,.01,.08,.02,.15,.04,.22,.01,.07,.02,.13,.03,.17,0,.05,.01,.08,.01,.08,.09-.12,.19-.24,.29-.36s.24-.23,.39-.32c.15-.1,.32-.17,.52-.23,.19-.06,.41-.09,.66-.09,.28,0,.52,.05,.73,.16s.37,.25,.51,.41,.24,.35,.31,.55c.07,.2,.11,.39,.12,.56,.04-.22,.11-.42,.22-.62,.1-.2,.24-.38,.4-.54,.16-.16,.36-.29,.6-.38,.24-.1,.51-.14,.81-.14,.62,0,1.09,.19,1.43,.58,.34,.39,.5,.93,.5,1.64v3.83h-.8v-3.83c0-.23-.02-.45-.06-.65-.04-.2-.11-.37-.22-.52-.1-.15-.24-.27-.41-.35-.17-.09-.39-.13-.64-.13-.23,0-.44,.06-.64,.17-.19,.11-.36,.25-.5,.43s-.25,.36-.32,.57-.11,.41-.11,.61v3.71h-.78v-3.83c0-.55-.12-.97-.35-1.24-.24-.28-.58-.41-1.03-.41-.28,0-.55,.08-.82,.25s-.5,.43-.72,.78v4.45h-.78Z"/>
        <path class="cls-1" d="M239.99,55.62c-.17,0-.31-.06-.42-.19-.11-.12-.17-.27-.17-.44s.06-.31,.17-.44c.12-.12,.25-.19,.41-.19,.18,0,.33,.06,.46,.19,.13,.12,.2,.27,.2,.44,0,.18-.07,.33-.2,.45-.13,.12-.29,.17-.46,.17Zm.41,7.51h-.78v-5.95h.78v5.95Z"/>
        <path class="cls-1" d="M243.97,63.24c-.86,0-1.32-.48-1.37-1.45v-4.04h-.91s-.07-.05-.07-.1v-.35l1.01-.12c.02-.09,.03-.22,.05-.38s.04-.34,.07-.53c.03-.18,.05-.36,.08-.53,.02-.17,.04-.29,.05-.37,.02-.14,.08-.22,.2-.22h.3v2.05h1.81v.54h-1.81v3.97c0,.31,.07,.55,.22,.71,.15,.16,.35,.24,.59,.24,.14,0,.26,0,.36-.04s.21-.08,.35-.13c.04-.02,.09-.02,.14-.02s.1,.04,.12,.1l.13,.25c-.2,.14-.41,.24-.62,.31s-.45,.1-.71,.1Z"/>
        <path class="cls-1" d="M248.67,63.23c-.48,0-.9-.09-1.25-.26-.36-.17-.65-.4-.88-.7-.23-.29-.4-.63-.52-1.02-.11-.39-.17-.8-.17-1.23s.06-.8,.19-1.16,.3-.67,.54-.94c.24-.26,.53-.47,.87-.62,.34-.15,.73-.23,1.16-.23,.35,0,.68,.07,.98,.2,.3,.13,.56,.32,.77,.56,.22,.24,.39,.53,.51,.86s.19,.71,.19,1.13c0,.11-.02,.19-.06,.23s-.11,.06-.2,.06h-4.19c.03,.89,.24,1.54,.64,1.95,.39,.41,.9,.62,1.52,.62,.38,0,.7-.05,.94-.16,.24-.11,.45-.21,.61-.29,.05-.04,.1-.07,.14-.1,.05-.03,.09-.04,.13-.04,.05,0,.1,.03,.14,.08l.18,.24c-.29,.28-.63,.49-1.04,.62-.4,.14-.81,.2-1.21,.2Zm1.72-3.64c0-.61-.17-1.09-.48-1.45-.31-.36-.74-.53-1.3-.53-1.14,0-1.8,.66-1.98,1.98h3.76Z"/>
        <path class="cls-1" d="M256.55,62.94c-.02-.07-.03-.15-.04-.23s-.02-.15-.04-.22c-.01-.07-.02-.13-.03-.17s-.01-.08-.01-.08c-.3,.39-.62,.66-.98,.79-.36,.14-.71,.2-1.04,.2-.78,0-1.38-.28-1.82-.83-.44-.56-.65-1.32-.65-2.3,0-.45,.06-.86,.19-1.23,.12-.37,.3-.69,.52-.95,.22-.26,.48-.47,.77-.62,.29-.15,.62-.22,.96-.22,.22,0,.42,.04,.62,.11,.2,.07,.38,.16,.55,.28,.17,.11,.32,.24,.46,.39,.14,.15,.25,.3,.35,.46v-4.02h.78v8.84h-.37c-.1,0-.17-.06-.2-.19Zm-.2-4.01c-.1-.16-.22-.32-.35-.47-.13-.16-.27-.29-.43-.41-.15-.12-.32-.22-.49-.29-.18-.08-.36-.11-.56-.11-.54,0-.96,.22-1.28,.65s-.48,1.05-.48,1.85c.02,.89,.18,1.53,.49,1.94,.31,.4,.77,.61,1.38,.61,.3,0,.61-.08,.92-.25,.31-.16,.58-.4,.81-.71v-2.8Z"/>
        <path class="cls-1" d="M258.52,64.69c-.09-.06-.1-.15-.04-.25,.44-.78,.77-1.6,1-2.45,.23-.85,.34-1.73,.34-2.62s-.11-1.77-.34-2.62c-.23-.85-.56-1.66-1-2.44-.07-.11-.04-.2,.08-.25l.3-.2c.59,.92,1.01,1.83,1.25,2.73,.24,.9,.36,1.83,.36,2.78s-.12,1.9-.36,2.8c-.24,.9-.66,1.81-1.25,2.74l-.35-.22Z"/>
      </g>
    </g>
  </g>
</svg>